<?xml version='1.0' encoding='utf-8'?>
<svg xmlns="http://www.w3.org/2000/svg" width="1323.2mm" height="1323.2mm" version="1.1" viewBox="0 0 1323.2 1323.2"> <g transform="translate(-41.522 32.483)"> <g transform="matrix(3.9646 0 0 3.9646 6503.2 -4140.4)"> <path d="m-1629.9 1036.1h333.75v333.75h-333.75z" fill="#e7dfd8" stroke-width=".30903"/> <path d="m-1464.5 1100.1c-4.8477-0.9704-7.8771-3.7401-8.8529-8.0943-0.1766-0.7878-0.518-3.5785-0.7586-6.2016-0.7339-7.9966-1.0347-8.8935-6.9467-20.707-4.4961-8.9845-5.446-11.358-5.446-13.61 0-3.4101 1.6628-5.0769 6.5439-6.5594 2.7004-0.8202 6.3063-0.7186 8.4708 0.2389 5.0532 2.2353 7.4071 8.2934 7.421 19.099 0.011 4.6982 0.3732 8.8045 0.906 10.13l0.3605 0.8971 0.5731-1.2742c0.8196-1.8223 0.9969-6.0179 0.553-13.086-0.2063-3.2875-0.3564-6.6276-0.3334-7.4226 0.1197-4.1446 3.4203-7.0075 8.4283-7.3109 6.8969-0.4178 10.294 3.8595 9.2453 11.642-0.5175 3.8431-1.3834 7.0597-3.6109 13.413-1.1244 3.2076-2.3783 7.0432-2.7864 8.5237-0.4081 1.4804-1.1445 4.172-1.6364 5.9813-1.2756 4.6911-3.2189 10.011-4.3252 11.842-1.5275 2.527-3.8878 3.2824-7.8054 2.4983z" fill="#94a4a3" stroke-width=".29907"/> <path d="m-1442.8 1102.9c-2.6077-0.8772-3.9968-2.0016-5.002-4.0485-0.697-1.419-0.8461-2.153-0.9319-4.5819-0.1249-3.5433 0.3174-5.4339 3.0331-12.959 2.1467-5.948 3.1423-10.011 4.1039-16.748 0.964-6.7535 1.8954-10.264 3.4088-12.846 0.934-1.5937 3.4724-3.9605 4.8772-4.5475 1.3195-0.5514 4.2152-0.6047 5.2041-0.096 1.5592 0.8022 2.6233 2.1483 2.9527 3.7353 0.6107 2.9416-0.6038 6.9859-5.3876 17.941-3.4446 7.8884-4.924 12.112-4.2423 12.112 0.5456 0 1.5716-1.0108 2.6022-2.5636 1.6964-2.5557 3.2819-6.4899 5.409-13.422 2.1172-6.8999 3.5762-10.269 5.4629-12.615 2.7327-3.3985 5.6344-3.0661 6.2007 0.7104 0.5355 3.571-2.7421 15.736-6.8296 25.348-4.9248 11.581-11.596 22.811-14.661 24.68-1.2863 0.7844-3.685 0.7455-6.1999-0.1008z" fill="#94a4a3" stroke-width=".29907"/> <path d="m-1492.5 1108.8c-2.6691-0.9479-3.7108-1.5121-6.0668-3.2858-2.458-1.8503-4.5947-4.4752-7.2841-8.948-4.29-7.1345-7.3907-10.994-15.705-19.547-9.9776-10.265-17.868-18.642-19.074-20.25-2.8351-3.7817-2.0878-6.6754 2.085-8.0721 3.0021-1.0049 9.7153-1.4303 12.486-0.7914 3.9621 0.914 7.51 4.2229 14.257 13.297 5.2932 7.1189 6.6861 8.7936 7.9122 9.5125 0.9193 0.5387 0.9217 0.5384 0.9215-0.1496-3e-4 -1.0993-1.5155-4.0125-4.639-8.9199-3.4832-5.4727-4.0188-6.5935-4.0273-8.4292-0.011-1.863 0.4306-2.7372 1.8805-3.7416 1.0709-0.7418 1.4518-0.8301 3.4712-0.8048 3.4094 0.043 5.729 1.2829 8.4165 4.4995 2.2206 2.6576 3.5641 5.8948 6.3745 15.36 1.9035 6.4106 2.527 8.1344 5.9514 16.449 2.9128 7.0721 3.9426 10.088 4.4314 12.978 1.4031 8.296-4.0226 13.46-11.392 10.843z" fill="#94a4a3" stroke-width=".29907"/> <path d="m-1430.4 1110.5c-0.9522-1.2221-1.0798-1.5657-0.9167-2.4674 0.2842-1.5718 1.4775-4.0252 3.4183-7.029 3.0034-4.648 4.177-7.3692 7.7387-17.944 1.732-5.1428 2.5436-8.1982 3.9322-14.804 0.6742-3.2075 1.5002-6.695 1.8354-7.75 1.8058-5.6829 4.8406-8.9981 8.2371-8.9981 1.3385 0 1.7439 0.1411 2.6222 0.9122 1.3199 1.159 1.7964 2.5903 1.5776 4.7386l-0.1708 1.6765 1.3852-1.6449c4.3642-5.1821 9.9698-9.0261 13.537-9.2829 2.3811-0.1713 3.0308-0.011 4.0664 1.0285 0.8686 0.8687 1.0168 1.2223 1.0168 2.4256 0 2.0633-1.2063 4.0586-5.6942 9.4177-2.1351 2.5497-5.5917 6.9908-7.6813 9.8694-2.0895 2.8786-5.2657 7.2323-7.0581 9.6751-4.9379 6.7297-6.1231 8.61-9.1465 14.511-3.6992 7.2208-5.7313 9.9745-10.086 13.669-2.2275 1.8896-5.166 3.4169-6.5754 3.4172-0.7571 1e-4 -1.1394-0.2661-2.0381-1.4196z" fill="#94a4a3" stroke-width=".29907"/> <path d="m-1420.2 1127.8c-2.4224-0.4819-3.5116-1.1563-4.2836-2.6521-1.1721-2.2709-0.5096-5.7418 1.6322-8.5498 0.4543-0.5956 2.5153-2.3702 4.5799-3.9434 4.261-3.2469 10.6-9.4467 13.546-13.248 2.7762-3.5822 4.321-6.2958 7.997-14.047 4.1007-8.647 9.7648-19.463 11.897-22.718 2.3537-3.5936 6.9897-8.1075 10.363-10.09 5.0038-2.9407 11.856-5.1705 19.119-6.2217 4.4341-0.6417 11.54-0.4865 13.718 0.2995 1.6511 0.5959 3.0924 1.9553 3.3293 3.1404 0.6419 3.2095-2.142 5.7305-15.953 14.446-6.1231 3.8641-8.4853 6.0813-14.414 13.528-1.5715 1.9739-4.3241 5.1366-6.1172 7.0282-3.9803 4.1996-4.8895 5.2945-4.8895 5.8881 0 0.368 0.2223 0.4177 1.1214 0.251 2.6426-0.4902 5.9057-2.8182 11.707-8.3516 6.2923-6.0019 9.0348-8.0735 17.976-13.578 4.7111-2.9002 7.6215-5.3153 11.651-9.6677 7.717-8.3352 11.802-11.422 17.807-13.459 1.7024-0.5775 2.7082-0.71 5.3834-0.71 3.0006 0 3.4402 0.074 5.0017 0.8406 5.9234 2.9088 6.796 10.982 2.3607 21.84-1.5108 3.699-3.489 6.8878-5.8355 9.4079-2.1842 2.3457-13.953 11.82-17.5 14.088-7.0018 4.4772-14.728 7.0576-32.776 10.947-11.977 2.5809-15.66 4.4239-24.854 12.435-6.2514 5.4472-10.901 8.4724-16.337 10.629-5.3563 2.125-12.495 3.2097-16.23 2.4664z" fill="#94a4a3" stroke-width=".29907"/> <path d="m-1520.1 1128.9c-3.1023-0.5391-4.562-0.6112-10.767-0.5322-14.515 0.1852-16.212 0.1352-19.589-0.5758-1.7272-0.3636-6.303-1.7138-10.168-3.0004-11.415-3.7991-13.562-4.2899-24.972-5.7073-9.1069-1.1312-13.834-2.0467-17.695-3.4265-6.4736-2.3136-9.636-5.8818-10.154-11.457-0.1074-1.1607 0.016-4.2185 0.287-7.1061 0.7184-7.6428 0.7441-8.3483 0.4578-12.508-0.3132-4.5487-0.9946-8.0843-2.8894-14.991-1.2626-4.602-1.3955-5.3961-1.402-8.3739-0.011-3.0277 0.056-3.3973 0.786-4.6389 1.9676-3.3468 6.2511-3.6268 11.07-0.7235 2.5379 1.5289 8.0275 7.0643 13.772 13.886 7.3041 8.6747 12.724 13.826 18.329 17.422 3.0338 1.9462 4.9847 2.8696 11.514 5.4492 6.8715 2.7148 10.978 4.7154 17.489 8.5206 8.7347 5.105 12.702 6.8893 15.318 6.8893 1.4982 0 1.5929-0.291 0.5426-1.6681-1.1519-1.5102-4.8911-3.8472-10.511-6.5691-6.1636-2.9857-8.5573-4.4593-14.968-9.2151-2.6929-1.9978-7.4623-5.1992-10.598-7.1145-7.4109-4.5255-9.6498-6.3278-14.579-11.735-6.3799-6.9994-11.842-11.596-18.35-15.442-4.0344-2.3842-5.0331-3.3756-5.2387-5.2002-0.1441-1.279-0.079-1.4433 1.0058-2.5219 1.851-1.8408 4.0201-2.5115 8.6395-2.6713 3.4029-0.1177 4.5835-0.015 9.4208 0.8183 3.5993 0.6201 7.7752 1.094 11.96 1.3571 7.1869 0.4521 9.6357 0.8713 13.03 2.2305 5.9909 2.3989 10.676 6.8508 20.155 19.151 4.1025 5.3237 6.2576 7.9274 10.887 13.153 2.1162 2.3887 5.6079 6.4964 7.7593 9.1281 2.1515 2.6318 6.6142 7.5441 9.9172 10.916 5.7938 5.9151 8.262 8.9822 9.3012 11.558 0.2557 0.634 0.6758 1.6132 0.9334 2.1762 0.3459 0.7556 0.4214 1.5262 0.2889 2.9452-0.3748 4.0146-2.7574 7.2984-6.5883 9.0806-2.0741 0.9648-2.2488 0.9934-6.4683 1.0559-3.2825 0.049-5.2089-0.087-7.9254-0.5591z" fill="#94a4a3" stroke-width=".29907"/> <path d="m-1331.3 1160c-5.2944-0.6059-11.794-2.7644-20.578-6.8345-8.0639-3.7362-12.479-5.2608-17.923-6.1892-4.1393-0.7058-12.034-0.6375-18.247 0.158-6.4485 0.8256-11.586 1.1668-21.095 1.4007-8.7617 0.2157-9.5019 0.095-11.189-1.8263-1.8943-2.1575-1.7144-4.8913 0.5039-7.654 1.8133-2.2582 3.1911-3.1553 6.3244-4.1179 3.7443-1.1502 4.7995-1.3683 9.4548-1.9541 11.159-1.4043 14.521-3.1041 23.882-12.074 2.9222-2.8003 6.0779-5.5993 7.0127-6.2198 3.6144-2.3992 6.6601-3.1697 14.564-3.6847 2.7964-0.1823 6.1448-0.469 7.4409-0.6373 7.939-1.0312 15.822-4.7835 24.345-11.589 5.3899-4.3035 7.6006-5.4265 10.682-5.4265 3.6687 0 7.4003 2.5043 9.1029 6.1089 1.5591 3.3009 2.3495 8.7005 1.8203 12.434-0.8276 5.8382-4.8809 10.422-11.299 12.779-4.8976 1.7986-6.1473 1.9202-22.353 2.1737-13.118 0.2052-15.399 0.3106-18.583 0.859-5.2177 0.8988-10.948 2.835-11.623 3.9274-0.1062 0.1723 0.3174 0.5389 0.9509 0.8223 1.7807 0.7965 6.8235 0.6565 11.311-0.3142 1.9739-0.4269 5.204-1.1238 7.1778-1.5486 4.9173-1.0581 9.6745-1.261 14.819-0.6319 2.9028 0.355 6.169 0.4837 11.514 0.4536 6.7247-0.037 7.6476 0.019 9.3404 0.5596 1.0331 0.3309 2.3348 0.9498 2.8927 1.3752 1.272 0.9702 2.4634 3.4165 2.7096 5.5638 0.3533 3.0822-0.8565 9.8684-2.3619 13.248-2.1413 4.8078-7.1507 8.0519-13.702 8.8732-2.7726 0.3477-3.5926 0.3437-6.8941-0.034z" fill="#94a4a3" stroke-width=".29907"/> <path d="m-1462.5 1174c-0.9969 0.027-3.0571-0.079-4.5783-0.2346-11.384-1.1617-20.635-7.3669-25.455-17.073-1.4867-2.9941-2.9827-9.9233-2.9322-13.582 0.077-5.5639 1.617-11.445 4.2819-16.352 4.6521-8.5651 14.417-16.745 24.05-20.148 7.5947-2.6823 16.926-1.156 24.354 3.9838 10.572 7.3145 17.333 21.888 15.92 34.316-0.5731 5.0407-2.4652 9.9395-5.3822 13.934-4.5428 6.221-10.443 10.361-18.752 13.156-2.728 0.918-8.4978 1.9206-11.507 1.9995z" fill="#9f5a42" stroke-width=".29081"/> <path d="m-1612.9 1208.4c-1.7436-0.5456-3.8188-2.0575-5.0655-3.6901-2.2768-2.982-4.4108-8.7689-4.7944-13.001-0.8735-9.6398 7.9082-17.094 22.635-19.212 1.7459-0.2511 6.9945-0.5963 11.664-0.7669 18.081-0.6609 22.419-1.7089 32.116-7.7596 6.2694-3.9116 8.9016-5.1973 14.056-6.8652 6.2043-2.0076 6.3984-2.0896 5.7763-2.4376-0.2773-0.1552-1.216-0.4172-2.086-0.5821-2.1602-0.4097-5.3887 0.067-10.085 1.4915-2.0756 0.6293-5.3216 1.6157-7.2132 2.1922-4.6643 1.4215-7.9425 1.9318-15.859 2.4683-7.8785 0.5341-11.263 1.1558-20.329 3.7346-13.084 3.7216-16.533 4.3324-19.535 3.4597-2.8765-0.8363-4.5559-2.7231-6.0229-6.7671-2.0634-5.6881-2.4774-11.279-1.3504-18.234 1.6921-10.442 4.1528-15.054 9.3392-17.503 3.4526-1.6306 5.4786-2.0248 9.6343-1.8747 3.1722 0.1146 3.9745 0.2598 6.7689 1.2247 1.7435 0.6019 5.4446 2.1191 8.2244 3.3714 13.377 6.0266 18.265 7.3894 29.96 8.3539 6.1402 0.5064 9.5153 0.9172 17.413 2.1195 4.649 0.7077 5.9187 0.7857 11.365 0.6975 10.398-0.1681 11.913-0.1028 14.027 0.6099 2.5952 0.8743 4.6618 2.2575 6.6417 4.4453 3.1991 3.5352 4.1548 6.2365 4.1548 11.746 0 2.641-0.1451 3.964-0.5939 5.4167-0.73 2.3638-2.9778 5.6321-5.8218 8.4651-2.9706 2.9591-5.8617 4.2983-15.211 7.046-7.7355 2.2735-11.889 4.2021-16.631 7.7227-6.7294 4.9961-10.026 6.3812-21.098 8.8633-8.0718 1.8098-11.062 2.7647-21.245 6.7845-20.271 8.0016-26.709 9.7725-30.835 8.481z" fill="#94a4a3" stroke-width=".29907"/> <path d="m-1475.3 1236.5c-2.2262-1.4991-4.8884-4.5333-5.9308-6.7596-0.7572-1.6169-0.9336-2.4164-1.033-4.6815-0.1433-3.2612 0.339-5.8838 2.0549-11.175 2.3122-7.13 3.2431-11.664 2.3947-11.664-0.3697 0-1.5811 1.6248-2.3414 3.1404-0.6647 1.3247-2.2231 6.2403-3.6506 11.514-1.0912 4.0315-2.154 6.1473-3.563 7.0936-1.3754 0.9235-2.3557 0.8593-5.8625-0.3844-2.4903-0.8831-3.6257-1.105-6.7872-1.3266-4.2677-0.299-5.055-0.5849-6.6099-2.4015-1.7058-1.9929-2.1254-4.9024-1.2454-8.6356 1.0247-4.3477 3.4835-7.3509 10.306-12.588 4.2637-3.2732 9.4707-8.3015 14.638-14.136 2.7809-3.1401 3.2774-3.5666 4.6112-3.9627 0.8222-0.2441 2.3409-0.4439 3.3748-0.4439 2.3856 0 11.018 1.4011 12.11 1.9655 0.4535 0.2345 1.1984 0.9164 1.6552 1.5153 1.6604 2.1768 1.23 6.2311-1.4559 13.716-3.6892 10.281-5.3783 18.669-6.3726 31.648-0.5731 7.4796-1.0209 8.5476-3.5922 8.5681-0.8784 0.011-1.6025-0.2615-2.7004-1.0009z" fill="#94a4a3" stroke-width=".29907"/> <path d="m-1312.9 1239.8c-3.527-0.95-5.6426-2.303-10.256-6.5585-7.4994-6.9172-12.114-9.3617-21.533-11.408-10.29-2.2352-14.404-3.7124-19.216-6.8982-3.6116-2.3914-9.3691-8.4481-14.584-15.341-6.1401-8.1164-8.5714-10.972-12.454-14.627-4.1415-3.8983-7.0084-5.9314-15.505-10.995-12.253-7.3027-14.55-8.806-16.602-10.864-1.8649-1.8709-3.8607-5.0884-4.2885-6.9134-0.4616-1.9695 1.0634-4.1353 3.476-4.9366 2.0733-0.6886 3.4254-0.4496 7.4885 1.3233 5.2759 2.3021 6.3563 2.5175 12.468 2.4877 4.4915-0.022 5.4882-0.114 7.0282-0.6498 3.5565-1.2374 6.4945-1.7841 9.5702-1.7809 5.0991 0.011 7.6574 0.7572 18.85 5.5401 11.216 4.7927 16.394 6.4086 26.31 8.2109 9.5312 1.7322 13.339 2.9596 21.977 7.0844 7.7803 3.7151 10.654 5.8825 13.008 9.8122 3.8871 6.4892 3.9368 16.5 0.1028 20.66-2.9975 3.252-8.0881 3.7876-14.152 1.4889-2.5984-0.9851-4.1292-1.8436-10.168-5.703-7.9452-5.0773-9.3478-5.6498-17.546-7.1624-7.9429-1.4656-11.133-2.8478-19.701-8.5363-6.4685-4.2944-9.8564-6.1359-9.8564-5.3576 0 0.8816 5.5667 5.8153 9.151 8.1105 2.0801 1.3319 6.6837 3.5447 10.211 4.908 4.3115 1.6664 5.6636 2.3609 9.745 5.0053 7.5276 4.8775 15.892 9.0437 25.623 12.764 8.1963 3.1329 10.435 4.1638 12.355 5.6885 3.195 2.538 5.0839 5.5903 7.0085 11.325 0.918 2.7355 1.0664 3.5717 1.0928 6.1563 0.026 2.5617-0.065 3.1705-0.6397 4.2443-1.5635 2.9254-4.9063 4.0156-8.9618 2.9231z" fill="#94a4a3" stroke-width=".29907"/> <path d="m-1568.2 1269.8c-2.7605-1.0301-5.7741-3.8895-7.068-6.7064-1.0358-2.2546-1.2604-5.9303-0.5332-8.7212 1.1266-4.323 4.3815-9.2198 8.6178-12.965 1.1873-1.0497 4.2448-3.5737 6.7944-5.609 18.895-15.084 28.069-23.851 31.695-30.291 0.5369-0.9533 0.8997-1.8097 0.8061-1.9034-0.2085-0.2084-1.6764 0.6779-4.9009 2.9593-4.3689 3.091-7.8781 5.9817-16.983 13.99-1.9739 1.7361-5.9441 5.0329-8.8227 7.3264-6.2595 4.9874-11.004 9.6374-17.891 17.537-7.155 8.2063-9.6812 10.374-13.98 11.996-1.5654 0.5908-2.3195 0.6681-6.4098 0.6576-4.2819-0.012-4.8179-0.076-7.0253-0.8446-4.2567-1.4829-7.8598-4.173-10.809-8.0697-2.8648-3.7852-4.001-7.6027-3.9935-13.417 0.011-6.0154 1.4861-9.8761 5.1959-13.57 4.3192-4.3007 8.7179-5.8636 20.52-7.2909 9.1306-1.1042 15.465-2.0997 18.925-2.974 6.8834-1.7398 13.158-4.786 19.495-9.4649 10.747-7.9349 12.485-8.8753 22.442-12.14 9.3302-3.059 13.826-5.4267 22.821-12.019 5.2692-3.8618 7.1834-5.1255 9.5375-6.2973 4.7701-2.3743 9.3648-2.2038 12.014 0.4455 1.8069 1.8068 3.3295 5.0297 3.3295 7.0473 0 3.0899-1.2881 4.8175-6.254 8.3881-4.0951 2.9445-5.4915 4.0841-11.098 9.0583-8.8 7.8071-11.888 11.787-16.593 21.383-4.8978 9.9902-7.5324 13.54-15.041 20.266-9.2151 8.2549-13.186 12.352-19.811 20.44-2.4708 3.0165-5.2148 6.262-6.0978 7.2122-2.9886 3.216-6.2857 4.5433-8.8805 3.5749z" fill="#94a4a3" stroke-width=".29907"/> <path d="m-1403.9 1277.2c-3.3319-1.4469-5.6812-5.0143-6.789-10.309-0.2237-1.0692-0.6186-4.501-0.8776-7.6263-0.7067-8.526-1.4549-12.317-3.3217-16.83-1.338-3.2347-2.2777-4.8976-6.1224-10.834-4.0356-6.2311-4.7933-7.5942-6.0691-10.916-1.4802-3.8548-2.1363-7.2847-3.175-16.601-1.1703-10.497-1.8393-14.461-3.0039-17.799-2.7181-7.7921-3.0735-9.0342-3.213-11.229-0.2163-3.4066 0.6155-4.6936 4.1139-6.3662 1.6919-0.8088 2.2543-0.927 4.3365-0.9107 3.0164 0.024 4.9569 0.745 8.2145 3.0547 1.3198 0.9359 3.4433 2.3656 4.7189 3.1773 2.967 1.8879 7.7944 6.7363 9.995 10.038 0.9316 1.3981 2.6026 4.2243 3.7128 6.2804 5.2302 9.6854 7.9076 13.464 11.646 16.434 3.8741 3.0785 5.3291 3.837 17.042 8.8845 10.307 4.4417 12.984 6.034 16.68 9.9206 2.3296 2.4497 3.2015 4.3755 3.2051 7.0794 0 2.6653-1.0962 5.1315-3.353 7.5211-2.8623 3.0307-5.9701 4.5915-9.1413 4.5911-3.7411-7e-4 -6.847-2.381-11.949-9.1578-4.9768-6.6105-6.8964-8.3595-13.71-12.493-12.247-7.4285-16.629-12.302-20.906-23.252-1.1611-2.9728-2.3038-4.7817-2.7437-4.3431-0.1382 0.1376-0.2327 1.3488-0.2102 2.6916 0.082 4.9454 2.6287 10.024 8.1854 16.33 2.5722 2.919 5.6494 5.4991 12.858 10.781 6.9224 5.0721 9.5599 7.3737 12.157 10.609 3.585 4.4654 5.0687 8.5214 4.8183 13.171-0.2635 4.8926-1.8833 8.1775-6.8676 13.929-1.3649 1.5748-4.0558 4.738-5.9798 7.0295-3.7661 4.4852-5.6396 6.1294-8.0102 7.0301-1.8015 0.6845-4.8013 0.7397-6.2404 0.115z" fill="#94a4a3" stroke-width=".29907"/> <path d="m-1421.6 1277c-1.7834-0.8828-4.0671-3.2679-6.1636-6.4378-0.9564-1.4458-2.4904-3.7664-3.4088-5.1569-0.9184-1.3903-3.4868-4.4291-5.7074-6.753-4.8743-5.1006-6.1297-6.6959-7.877-10.009-3.0426-5.7697-3.7758-9.9163-3.8077-21.533-0.013-4.688-0.1256-9.1291-0.2504-9.8694l-0.2271-1.3458-0.3792 0.8972c-0.887 2.098-1.2879 5.8932-1.1219 10.617 0.1595 4.5348 0.5273 7.2212 2.15 15.701 1.0247 5.3551 1.1301 9.3672 0.2907 11.062-0.3249 0.6557-1.0618 1.5086-1.6375 1.895-0.8918 0.5988-1.3345 0.6861-2.9907 0.5907-5.929-0.3419-12.228-6.6057-13.925-13.846-0.3797-1.6208-0.4572-3.039-0.3432-6.2806 0.1308-3.7187 0.4021-5.4243 2.4276-15.253 1.2541-6.0862 2.9439-14.7 3.755-19.14 1.6961-9.2883 2.544-12.502 4.182-15.851 1.4476-2.9596 2.8986-4.6846 4.656-5.5352 1.1576-0.5605 1.7482-0.6385 4.1611-0.5497 2.5618 0.093 2.9265 0.184 4.0986 1.0083 1.8505 1.3013 3.1459 3.1587 3.9198 5.6199 0.6502 2.0678 0.6723 2.4998 0.5909 11.513-0.052 5.7403 0.039 10.081 0.2373 11.215 1.0309 5.9287 3.4263 10.479 10.656 20.243 1.6443 2.2206 3.6665 5.047 4.4939 6.2806 4.4965 6.7046 6.7686 13.089 8.1428 22.879 1.514 10.787 0.9402 16.403-1.8497 18.104-1.2476 0.7606-2.4425 0.7413-4.0731-0.065z" fill="#94a4a3" stroke-width=".29907"/> <path d="m-1617.7 1339.4c-0.9961-1.5202-0.8714-8.2508 0.3516-18.979 0.5784-5.0737 0.5387-9.4984-0.1488-16.598-1.4323-14.793-2.0468-37.076-1.1837-42.917 0.4018-2.7182 0.8972-3.7557 1.9151-4.0112 1.1081-0.2781 2.6587 0.4933 9.0279 4.4917 3.6057 2.2635 8.3555 4.8614 13.483 7.3747 6.7588 3.3126 8.8847 4.1965 14.534 6.043 3.6396 1.1896 7.2581 2.4675 8.041 2.8397 2.1901 1.0413 2.249 2.2306 0.2453 4.9448-0.6072 0.8225-1.589 2.3701-2.182 3.4394-0.5929 1.0692-1.9312 3.0341-2.974 4.3663-4.7243 6.0362-8.3984 10.637-13.589 17.017-5.9628 7.3288-17.326 21.546-19.602 24.524-0.7542 0.9869-2.3346 3.2411-3.5119 5.0094-1.9176 2.8796-2.2333 3.2151-3.0251 3.2151-0.6168 0-1.0347-0.2298-1.382-0.7598z" fill="#6a898e" stroke-width=".29907"/> <path d="m-1565.3 1360.1c-2.3028-0.1097-6.4749-0.4684-9.2712-0.7981-3.2191-0.3796-8.2111-0.6722-13.608-0.7978-4.6879-0.1085-11.151-0.4442-14.362-0.745-6.2002-0.5806-8.8542-0.4827-11.321 0.417-3.3946 1.2384-5.4204-0.1843-5.4204-3.8063 0-1.3881 0.2436-2.0905 1.6906-4.8747 3.3732-6.4905 7.2538-12.099 13.017-18.813 1.698-1.9783 5.537-6.4468 8.5308-9.9302 6.7993-7.9108 8.2625-9.7527 12.643-15.916 7.3007-10.272 11.756-15.428 30.503-35.302 28.051-29.738 37.904-39.054 44.827-42.384 2.997-1.4422 6.1388-1.6954 8.761-0.7061 3.8231 1.4422 9.6684 5.982 17.794 13.82 3.1487 3.0374 8.5319 7.8289 11.963 10.648 3.4308 2.819 7.6511 6.426 9.3782 8.0159 4.0658 3.7425 6.3358 5.4281 7.8778 5.8498 0.8446 0.2311 2.8038 0.2759 6.1041 0.1399 4.3788-0.1805 4.9861-0.1446 6.131 0.3634 6.1313 2.7203 16.726 16.363 28.446 36.628 12.344 21.346 13.859 24.031 17.793 31.55 3.8927 7.4388 5.3829 9.6043 11.306 16.429 1.9451 2.2409 3.0545 4.13 3.7071 6.3126 0.3536 1.1817 0.335 1.3354-0.2285 1.899-0.5984 0.5983-0.7315 0.6046-5.5099 0.2607-2.6932-0.1936-6.2425-0.2623-7.8874-0.1526s-6.6244 0.2421-11.066 0.2937c-4.4411 0.052-9.8244 0.2405-11.963 0.4194-5.1627 0.432-20.637-0.051-29.01-0.9053-6.1226-0.6249-6.7391-0.6324-24.524-0.3038-13.456 0.2487-19.931 0.4916-24.674 0.9255-3.5365 0.3236-9.7273 0.7278-13.757 0.8982-4.0299 0.1704-8.1347 0.4027-9.1216 0.5162-2.3243 0.2673-43.273 0.3077-48.749 0.049z" fill="#3d6e75" stroke-width=".29907"/> <path d="m-1307.7 1361.5c-0.2786-0.2786-23.63-0.7056-35.658-0.6518-18.773 0.083-19.986 0.066-22.58-0.3226-3.2983-0.4948-5.34-1.4445-7.1915-3.3454-1.893-1.9435-2.8249-3.3321-7.9178-11.799-2.2758-3.7833-5.6154-9.1666-7.4218-11.963-1.8063-2.7963-4.3332-6.7118-5.6153-8.7013-1.2822-1.9894-4.004-6.6607-6.0488-10.381-2.0446-3.72-4.1196-7.2737-4.6111-7.8972-1.4261-1.8094-4.8216-7.1038-5.3183-8.2927-0.4083-0.9773-0.407-1.1879 0.012-2.0728 0.5991-1.2625 7.2927-8.5118 14.628-15.842 16.225-16.215 33.756-31.338 45.532-39.276 4.371-2.9469 6.3766-3.992 10.054-5.2391 3.6353-1.2331 7.4554-1.3246 10.235-0.2456 1.9159 0.7437 11.49 7.0325 14.937 9.8119 2.6345 2.1237 7.1052 6.68 8.2691 8.4272 1.8387 2.7603 2.186 5.2492 2.839 20.343 0.4973 11.495 0.4786 19.726-0.1435 63.203-0.1196 8.3611-0.1119 15.898 0.017 16.748 0.1292 0.8502 0.3255 2.5272 0.436 3.7266 0.1948 2.1111 0.1743 2.2088-0.6466 3.0655-0.7011 0.7318-1.088 0.8848-2.2373 0.8848-0.7642 0-1.4707-0.081-1.57-0.1805z" fill="#356069" stroke-width=".29907"/> </g> </g> </svg>